<?xml version="1.0" encoding="UTF-8" standalone="no"?>
<!-- Created with Inkscape (http://www.inkscape.org/) -->

<svg
   width="127.77505mm"
   height="31.921612mm"
   viewBox="0 0 127.77505 31.921612"
   version="1.1"
   id="svg1"
   inkscape:version="1.4 (e7c3feb, 2024-10-09)"
   sodipodi:docname="kunai.svg"
   xmlns:inkscape="http://www.inkscape.org/namespaces/inkscape"
   xmlns:sodipodi="http://sodipodi.sourceforge.net/DTD/sodipodi-0.dtd"
   xmlns="http://www.w3.org/2000/svg"
   xmlns:svg="http://www.w3.org/2000/svg">
  <sodipodi:namedview
     id="namedview1"
     pagecolor="#ffffff"
     bordercolor="#000000"
     borderopacity="0.25"
     inkscape:showpageshadow="2"
     inkscape:pageopacity="0.0"
     inkscape:pagecheckerboard="0"
     inkscape:deskcolor="#d1d1d1"
     inkscape:document-units="mm"
     inkscape:zoom="0.69544071"
     inkscape:cx="258.82868"
     inkscape:cy="27.320805"
     inkscape:window-width="1189"
     inkscape:window-height="755"
     inkscape:window-x="87"
     inkscape:window-y="46"
     inkscape:window-maximized="0"
     inkscape:current-layer="layer1" />
  <defs
     id="defs1" />
  <g
     inkscape:label="Capa 1"
     inkscape:groupmode="layer"
     id="layer1"
     transform="translate(-14.890968,-20.439375)">
    <g
       id="g49">
      <g
         id="g5"
         transform="translate(-13.696351,-22.827252)">
        <g
           id="g4"
           transform="translate(0,16.124507)">
          <path
             id="path4"
             style="fill:#666666;stroke:#333333;stroke-width:1;stroke-linecap:round;stroke-linejoin:round"
             d="M 88.612731,27.642114 29.08717,43.103186 88.612731,58.563737 100.74946,45.716463 h 25.87852 a 14.748287,14.748287 0 0 0 14.48594,12.134664 14.748287,14.748287 0 0 0 14.74845,-14.747941 14.748287,14.748287 0 0 0 -14.74845,-14.748454 14.748287,14.748287 0 0 0 -14.48594,12.135176 h -25.87852 z m 52.501189,5.798096 a 9.6626711,9.6626711 0 0 1 9.66297,9.662976 9.6626711,9.6626711 0 0 1 -9.66297,9.662461 9.6626711,9.6626711 0 0 1 -9.66246,-9.662461 9.6626711,9.6626711 0 0 1 9.66246,-9.662976 z" />
          <g
             id="g23"
             transform="translate(-31.796919,-24.198276)">
            <rect
               style="fill:#f9f9f9;stroke:#e6e6e6;stroke-width:0.5;stroke-linecap:round;stroke-linejoin:round;stroke-dasharray:none"
               id="rect5"
               width="24.223745"
               height="7.1233606"
               x="133.35912"
               y="63.708694"
               ry="0.88998288" />
            <path
               style="fill:#f9f9f9;stroke:#e6e6e6;stroke-width:0.499999;stroke-linecap:round;stroke-linejoin:round;stroke-dasharray:none"
               d="m 134.57987,70.690067 3.94135,-6.992723"
               id="path5" />
            <path
               style="fill:#f9f9f9;stroke:#e6e6e6;stroke-width:0.499999;stroke-linecap:round;stroke-linejoin:round;stroke-dasharray:none"
               d="m 152.04248,70.690067 3.94135,-6.992723"
               id="path6" />
            <path
               d="m 134.58,70.6901 3.941,-6.9928"
               style="fill:#f9f9f9;stroke:#e6e6e6;stroke-width:0.499999;stroke-linecap:round;stroke-linejoin:round;stroke-dasharray:none"
               id="path7" />
            <path
               d="m 137.49,70.6901 3.942,-6.9928"
               style="fill:#f9f9f9;stroke:#e6e6e6;stroke-width:0.499999;stroke-linecap:round;stroke-linejoin:round;stroke-dasharray:none"
               id="path8" />
            <path
               d="m 140.401,70.6901 3.941,-6.9928"
               style="fill:#f9f9f9;stroke:#e6e6e6;stroke-width:0.499999;stroke-linecap:round;stroke-linejoin:round;stroke-dasharray:none"
               id="path9" />
            <path
               d="m 143.311,70.6901 3.942,-6.9928"
               style="fill:#f9f9f9;stroke:#e6e6e6;stroke-width:0.499999;stroke-linecap:round;stroke-linejoin:round;stroke-dasharray:none"
               id="path10" />
            <path
               d="m 146.222,70.6901 3.941,-6.9928"
               style="fill:#f9f9f9;stroke:#e6e6e6;stroke-width:0.499999;stroke-linecap:round;stroke-linejoin:round;stroke-dasharray:none"
               id="path11" />
            <path
               d="m 149.132,70.6901 3.941,-6.9928"
               style="fill:#f9f9f9;stroke:#e6e6e6;stroke-width:0.499999;stroke-linecap:round;stroke-linejoin:round;stroke-dasharray:none"
               id="path12" />
            <path
               d="m 152.042,70.6901 3.942,-6.9928"
               style="fill:#f9f9f9;stroke:#e6e6e6;stroke-width:0.499999;stroke-linecap:round;stroke-linejoin:round;stroke-dasharray:none"
               id="path13" />
          </g>
        </g>
        <g
           id="g3"
           transform="translate(5.2250043,-16.611855)">
          <g
             id="g2"
             transform="translate(-5.5070343,14.956197)">
            <path
               id="path24"
               style="fill:#666666;stroke:none;stroke-width:1;stroke-linecap:round;stroke-linejoin:round"
               d="m 29.403533,60.895924 59.525565,15.460625 -2e-5,-15.460625 z"
               sodipodi:nodetypes="cccc" />
            <path
               id="path26"
               style="fill:#4d4d4d;stroke:none;stroke-width:1.00002;stroke-linecap:round;stroke-linejoin:round"
               d="m 88.769022,60.895924 0.0239,15.46062 12.137108,-12.84734 v -2.61328 z"
               sodipodi:nodetypes="ccccc" />
          </g>
          <g
             id="g1"
             transform="translate(-4.5654503,53.644041)">
            <path
               id="path25"
               style="fill:#cccccc;stroke:none;stroke-width:1;stroke-linecap:round;stroke-linejoin:round"
               d="m 28.327446,22.182413 59.526,-15.4606245 -2e-5,15.4606245 z"
               sodipodi:nodetypes="cccc" />
            <path
               id="path27"
               style="fill:#999999;stroke:none;stroke-width:1.00002;stroke-linecap:round;stroke-linejoin:round"
               d="m 87.827446,22.182413 0.0239,-15.4606195 12.1371,12.8473395 v 2.61328 z"
               sodipodi:nodetypes="ccccc" />
          </g>
        </g>
      </g>
      <path
         id="path48"
         style="fill:#cccccc;stroke-width:0.999995;stroke-linecap:round;stroke-linejoin:round"
         d="m 130.65349,22.582244 c -8.65343,-1.645126 -14.35254,4.063062 -15.54349,6.966279 0.0162,1.035266 0.80089,0.549733 1.32952,-0.04345 3.33807,-4.609874 9.12301,-7.225577 14.18555,-5.587937 0.8349,0.457003 1.74358,-0.880061 0.0284,-1.334895 z"
         sodipodi:nodetypes="cccccc" />
    </g>
  </g>
</svg>
